<?xml version="1.0" encoding="UTF-8" standalone="no"?>
<svg
   xmlns:dc="http://purl.org/dc/elements/1.1/"
   xmlns:cc="http://creativecommons.org/ns#"
   xmlns:rdf="http://www.w3.org/1999/02/22-rdf-syntax-ns#"
   xmlns:svg="http://www.w3.org/2000/svg"
   xmlns="http://www.w3.org/2000/svg"
   xmlns:sodipodi="http://sodipodi.sourceforge.net/DTD/sodipodi-0.dtd"
   xmlns:inkscape="http://www.inkscape.org/namespaces/inkscape"
   width="20"
   height="20"
   version="1.1"
   id="svg67"
   sodipodi:docname="mail.svg"
   inkscape:version="0.92.1 r">
  <metadata
     id="metadata71">
    <rdf:RDF>
      <cc:Work
         rdf:about="">
        <dc:format>image/svg+xml</dc:format>
        <dc:type
           rdf:resource="http://purl.org/dc/dcmitype/StillImage" />
        <dc:title></dc:title>
      </cc:Work>
    </rdf:RDF>
  </metadata>
  <sodipodi:namedview
     pagecolor="#ffffff"
     bordercolor="#666666"
     borderopacity="1"
     objecttolerance="10"
     gridtolerance="10"
     guidetolerance="10"
     inkscape:pageopacity="0"
     inkscape:pageshadow="2"
     inkscape:window-width="1440"
     inkscape:window-height="835"
     id="namedview69"
     showgrid="false"
     inkscape:zoom="19.666667"
     inkscape:cx="-0.1078949"
     inkscape:cy="14.319374"
     inkscape:window-x="1280"
     inkscape:window-y="124"
     inkscape:window-maximized="1"
     inkscape:current-layer="svg67" />
  <defs
     id="defs37">
    <linearGradient
       id="a"
       x1="543.79999"
       x2="503.79999"
       gradientUnits="userSpaceOnUse"
       gradientTransform="matrix(0,1,-1.16667,0,-452.67,-499.8)">
      <stop
         stop-color="#197cf1"
         id="stop2" />
      <stop
         offset="1"
         stop-color="#21c9fb"
         id="stop4" />
    </linearGradient>
    <linearGradient
       id="b"
       y1="547.79999"
       x1="384.57001"
       y2="530.47998"
       x2="394.57001"
       gradientUnits="userSpaceOnUse">
      <stop
         stop-color="#ffffff"
         stop-opacity="0"
         id="stop7" />
      <stop
         offset="1"
         stop-color="#ffffff"
         stop-opacity=".314"
         id="stop9" />
    </linearGradient>
    <linearGradient
       id="c"
       x1="384.57001"
       x2="414.57001"
       gradientUnits="userSpaceOnUse">
      <stop
         stop-opacity=".275"
         id="stop12" />
      <stop
         offset="1"
         stop-color="#ffffff"
         stop-opacity="0"
         id="stop14" />
    </linearGradient>
    <linearGradient
       id="d"
       y1="547.79999"
       x1="432.57001"
       y2="527.79999"
       x2="421.01999"
       gradientUnits="userSpaceOnUse">
      <stop
         stop-opacity=".082"
         id="stop17" />
      <stop
         offset="1"
         stop-opacity="0"
         id="stop19" />
    </linearGradient>
    <linearGradient
       id="e"
       y1="44"
       y2="20"
       x2="0"
       gradientUnits="userSpaceOnUse">
      <stop
         stop-color="#eef1f2"
         id="stop22" />
      <stop
         offset="1"
         stop-color="#f9fafb"
         id="stop24" />
    </linearGradient>
    <linearGradient
       id="f"
       y1="523.79999"
       y2="507.79999"
       gradientUnits="userSpaceOnUse"
       x2="0"
       gradientTransform="translate(0,4)">
      <stop
         stop-color="#7cbaf8"
         id="stop27" />
      <stop
         offset="1"
         stop-color="#f4fcff"
         id="stop29" />
    </linearGradient>
    <linearGradient
       id="g"
       y1="511.79999"
       x1="414.57001"
       y2="519.79999"
       x2="422.57001"
       gradientUnits="userSpaceOnUse">
      <stop
         stop-color="#292c2f"
         id="stop32" />
      <stop
         offset="1"
         stop-opacity="0"
         id="stop34" />
    </linearGradient>
  </defs>
  <g
     transform="matrix(0.49999991,0,0,0.5,-194.28497,-251.9)"
     id="g65">
    <g
       transform="translate(384.57,499.8)"
       id="g45">
      <path
         d="M 24,8 4,20 24,35 44,20 Z"
         id="path39"
         inkscape:connector-curvature="0"
         style="fill:#c8cfd3;fill-rule:evenodd" />
      <path
         d="M 10,4 V 44 H 38 V 12 L 30,4 Z"
         id="path41"
         inkscape:connector-curvature="0"
         style="fill:url(#a)" />
      <path
         d="M 4,20 V 44 H 44 V 20 L 28,32 H 20 Z"
         id="path43"
         inkscape:connector-curvature="0"
         style="fill:url(#e)" />
    </g>
    <g
       id="g53"
       style="fill-rule:evenodd">
      <path
         d="M 388.57,543.8 404.57,531.8 H 412.57 L 428.57,543.8 Z"
         id="path47"
         inkscape:connector-curvature="0"
         style="fill:url(#c)" />
      <path
         d="M 428.57,543.8 412.57,531.8 428.57,519.8 Z"
         id="path49"
         inkscape:connector-curvature="0"
         style="fill:url(#d)" />
      <path
         d="M 388.57,543.8 404.57,531.8 388.57,519.8 Z"
         id="path51"
         inkscape:connector-curvature="0"
         style="fill:url(#b)" />
    </g>
    <rect
       width="40"
       x="388.57001"
       y="542.79999"
       height="1"
       id="rect55"
       style="fill:#d1d3d4" />
    <path
       d="M 404.57,511.8 C 404.016,511.8 403.57,512.246 403.57,512.8 403.57,513.354 404.016,513.8 404.57,513.8 405.124,513.8 405.57,513.354 405.57,512.8 405.57,512.246 405.124,511.8 404.57,511.8 M 411.57,511.8 409.57,513.8 412.57,516.8 409.57,519.8 411.57,521.8 416.57,516.8 Z M 402.07,517.8 C 401.239,517.8 400.57,518.469 400.57,519.3 400.57,520.131 401.239,520.8 402.07,520.8 402.901,520.8 403.57,520.131 403.57,519.3 403.57,518.469 402.901,517.8 402.07,517.8 M 406.57,523.8 C 405.462,523.8 404.57,524.692 404.57,525.8 404.57,526.908 405.462,527.8 406.57,527.8 407.678,527.8 408.57,526.908 408.57,525.8 408.57,524.692 407.678,523.8 406.57,523.8"
       id="path57"
       inkscape:connector-curvature="0"
       style="fill:url(#f)" />
    <g
       id="g63"
       style="fill-rule:evenodd">
      <path
         d="M 422.57,511.8 H 414.57 V 503.8 Z"
         id="path59"
         inkscape:connector-curvature="0"
         style="fill:#313437" />
      <path
         d="M 414.57,511.8 H 422.57 V 519.8 Z"
         id="path61"
         inkscape:connector-curvature="0"
         style="opacity:0.2;fill:url(#g)" />
    </g>
  </g>
</svg>
