<?xml version="1.0" encoding="UTF-8" standalone="no"?>
<!-- Generator: Adobe Illustrator 13.0.2, SVG Export Plug-In . SVG Version: 6.00 Build 14948)  -->

<svg
   xmlns:dc="http://purl.org/dc/elements/1.1/"
   xmlns:cc="http://creativecommons.org/ns#"
   xmlns:rdf="http://www.w3.org/1999/02/22-rdf-syntax-ns#"
   xmlns:svg="http://www.w3.org/2000/svg"
   xmlns="http://www.w3.org/2000/svg"
   xmlns:sodipodi="http://sodipodi.sourceforge.net/DTD/sodipodi-0.dtd"
   xmlns:inkscape="http://www.inkscape.org/namespaces/inkscape"
   id="Layer_1"
   xml:space="preserve"
   height="20.000002"
   viewBox="0 0 19.999546 19.999671"
   width="20"
   version="1.1"
   y="0px"
   x="0px"
   enable-background="new 0 0 176.486 181.437"
   sodipodi:docname="xmpp.svg"
   inkscape:version="0.92.2 5c3e80d, 2017-08-06"><metadata
     id="metadata41"><rdf:RDF><cc:Work
         rdf:about=""><dc:format>image/svg+xml</dc:format><dc:type
           rdf:resource="http://purl.org/dc/dcmitype/StillImage" /><dc:title></dc:title></cc:Work></rdf:RDF></metadata><defs
     id="defs39" /><sodipodi:namedview
     pagecolor="#ffffff"
     bordercolor="#666666"
     borderopacity="1"
     objecttolerance="10"
     gridtolerance="10"
     guidetolerance="10"
     inkscape:pageopacity="0"
     inkscape:pageshadow="2"
     inkscape:window-width="1440"
     inkscape:window-height="835"
     id="namedview37"
     showgrid="false"
     fit-margin-top="0"
     fit-margin-left="0"
     fit-margin-right="0"
     fit-margin-bottom="0"
     inkscape:zoom="5.2028218"
     inkscape:cx="53.206166"
     inkscape:cy="-18.930453"
     inkscape:window-x="1280"
     inkscape:window-y="124"
     inkscape:window-maximized="1"
     inkscape:current-layer="Layer_1" /><linearGradient
     id="SVGID_1_"
     y2="0.00048828"
     gradientUnits="userSpaceOnUse"
     x2="-1807.2"
     gradientTransform="matrix(0.11567657,0,0,0.15720784,221.6353,-1.55e-4)"
     y1="125.86"
     x1="-1807.2"><stop
       stop-color="#1b3967"
       offset=".011"
       id="stop2" /><stop
       stop-color="#13b5ea"
       offset=".467"
       id="stop4" /><stop
       stop-color="#002b5c"
       offset=".9945"
       id="stop6" /></linearGradient><path
     d="M 15.764554,2.2304702 C 15.773461,2.436878 15.557956,2.3826412 15.557956,2.5909459 15.557956,8.6514611 10.3849,17.813542 5.1647632,19.599263 V 19.785077 C 12.100383,18.918871 19.824454,9.2835914 19.999127,4.725e-4 L 15.765364,2.2310977 Z"
     id="path9"
     style="fill:url(#SVGID_1_);stroke-width:0.13485274"
     inkscape:connector-curvature="0" /><path
     d="M 13.906789,2.8232955 C 13.915696,3.0297176 13.920786,3.2372236 13.920786,3.4455282 13.920786,9.5060435 10.369515,17.672367 5.1493782,19.458715 V 19.716065 C 11.981815,19.115054 17.389116,9.8083605 17.389116,2.548974 17.389116,2.1756059 17.374657,1.8055321 17.3462,1.4397084 L 13.907136,2.8225111 Z"
     id="path11"
     inkscape:connector-curvature="0"
     style="fill:#e96d1f;stroke-width:0.13485274" /><linearGradient
     id="SVGID_2_"
     y2="1.279e-13"
     gradientUnits="userSpaceOnUse"
     x2="-1073.2"
     gradientTransform="matrix(-0.11567657,0,0,0.15720784,-116.62612,-1.55e-4)"
     y1="126.85"
     x1="-1073.2"><stop
       stop-color="#1b3967"
       offset=".011"
       id="stop13" /><stop
       stop-color="#13b5ea"
       offset=".467"
       id="stop15" /><stop
       stop-color="#002b5c"
       offset=".9945"
       id="stop17" /></linearGradient><path
     d="M 4.2326414,2.2304702 C 4.2237343,2.436878 4.4393554,2.3826412 4.4393554,2.5909459 4.4393554,8.6514611 9.825025,17.897643 15.045509,19.684148 V 19.941812 C 8.1103512,19.074023 0.17412914,9.2831208 -5.4248178e-4,1.9e-6 L 4.2331041,2.230627 Z"
     id="path20"
     style="fill:url(#SVGID_2_);stroke-width:0.13485274"
     inkscape:connector-curvature="0" /><path
     d="M 6.3300888,2.9761083 C 6.3212974,3.1825162 6.3162076,3.3895658 6.3162076,3.5981699 6.3162076,9.6586995 9.8673625,17.825008 15.087616,19.611371 V 19.869035 C 8.2576075,19.43042 2.8478773,9.961159 2.8478773,2.7019295 2.8478773,2.3285613 2.8626839,1.9585018 2.8907932,1.5926781 L 6.3298575,2.9757946 Z"
     id="path22"
     inkscape:connector-curvature="0"
     style="fill:#a0ce67;stroke-width:0.13485274" /><path
     d="M 2.8577097,1.506367 3.7388181,1.9342857 C 3.7340754,2.0855155 3.7311835,2.2886289 3.7311835,2.4412848 3.7311835,8.9212332 8.0425648,17.879716 13.826509,19.281387 14.20188,19.452426 14.698479,19.607905 15.091085,19.742164 V 19.999671 C 7.5427263,19.125593 2.2394185,8.701776 2.8571314,1.5057395 Z"
     id="path24"
     inkscape:connector-curvature="0"
     style="fill:#439639;stroke-width:0.13485274" /><path
     d="M 17.38981,1.3769859 16.483715,1.789659 C 16.488459,1.9410457 16.505809,2.1359872 16.505809,2.288472 16.505809,8.7684204 12.194312,17.727074 6.4102528,19.128574 6.0351136,19.299784 5.5382828,19.455107 5.1459078,19.589508 V 19.847172 C 13.051708,18.485762 18.006829,8.572395 17.389116,1.3768291 Z"
     id="path26"
     inkscape:connector-curvature="0"
     style="fill:#d9541e;stroke-width:0.13485274" /></svg>